<?xml version="1.0" standalone="no"?><!DOCTYPE svg PUBLIC "-//W3C//DTD SVG 1.1//EN" "http://www.w3.org/Graphics/SVG/1.1/DTD/svg11.dtd"><svg t="1565587059599" class="icon" viewBox="0 0 1024 1024" version="1.1" xmlns="http://www.w3.org/2000/svg" p-id="3266" width="16" height="16" xmlns:xlink="http://www.w3.org/1999/xlink"><defs><style type="text/css"></style></defs><path d="M565.504 251.221333l199.68 194.133334a52.650667 52.650667 0 0 0 72.618667 0A47.104 47.104 0 0 0 853.333333 410.538667a47.104 47.104 0 0 0-15.530666-34.816L548.010667 98.218667a53.589333 53.589333 0 0 0-36.778667-12.8 51.2 51.2 0 0 0-35.84 14.677333L185.770667 377.685333a47.957333 47.957333 0 0 0 0 69.546667 51.2 51.2 0 0 0 72.533333 0l204.8-196.181333v671.744a49.749333 49.749333 0 0 0 31.658667 46.165333c19.285333 7.765333 41.472 3.498667 56.149333-10.837333a47.872 47.872 0 0 0 14.592-35.328v-671.573334z" p-id="3267" fill="#e04845"></path></svg>