<?xml version="1.0" encoding="UTF-8"?>
<svg width="12px" height="12px" viewBox="0 0 12 12" version="1.1" xmlns="http://www.w3.org/2000/svg" xmlns:xlink="http://www.w3.org/1999/xlink">
    <!-- Generator: Sketch 55.2 (78181) - https://sketchapp.com -->
    <!-- <title>icon/date</title> -->
    <desc>Created with Sketch.</desc>
    <g id="页面1" stroke="none" stroke-width="1" fill="none" fill-rule="evenodd">
        <g id="3-客流分析" transform="translate(-261.000000, -84.000000)" fill-rule="nonzero">
            <g id="icon/date" transform="translate(261.000000, 84.000000)">
                <rect id="矩形" fill="#000000" opacity="0" x="0" y="0" width="12" height="12"></rect>
                <path d="M8.7534375,9.71428125 L9.23598047,9.71428125 C9.51534375,9.71428125 9.74391797,9.54496875 9.74391797,9.33757031 C9.74391797,9.13014844 9.51534375,8.96084766 9.23598047,8.96084766 L8.7534375,8.96084766 C8.47407422,8.96084766 8.2455,9.13016016 8.2455,9.33757031 C8.24973047,9.54496875 8.47407422,9.71428125 8.7534375,9.71428125 Z M8.7534375,7.46667188 L9.23598047,7.46667188 C9.51534375,7.46667188 9.74391797,7.29735938 9.74391797,7.08994922 C9.74391797,6.88253906 9.51534375,6.71322656 9.23598047,6.71322656 L8.7534375,6.71322656 C8.47407422,6.71322656 8.2455,6.88253906 8.2455,7.08994922 C8.24973047,7.29735938 8.47407422,7.46667188 8.7534375,7.46667188 Z M5.75661328,7.46667188 L6.24338672,7.46667188 C6.52276172,7.46667188 6.75132422,7.29735938 6.75132422,7.08994922 C6.75132422,6.88253906 6.52275,6.71322656 6.24338672,6.71322656 L5.75661328,6.71322656 C5.47723828,6.71322656 5.24867578,6.88253906 5.24867578,7.08994922 C5.24867578,7.29735938 5.47725,7.46667188 5.75661328,7.46667188 Z M2.75978906,7.46667188 L3.24233203,7.46667188 C3.52169531,7.46667188 3.75026953,7.29735938 3.75026953,7.08994922 C3.75026953,6.88253906 3.52169531,6.71322656 3.24233203,6.71322656 L2.75978906,6.71322656 C2.48041406,6.71322656 2.25185156,6.88253906 2.25185156,7.08994922 C2.25185156,7.29735938 2.47619531,7.46667188 2.75978906,7.46667188 Z M5.75661328,9.71428125 L6.24338672,9.71428125 C6.52276172,9.71428125 6.75132422,9.54496875 6.75132422,9.33757031 C6.75132422,9.13014844 6.52275,8.96084766 6.24338672,8.96084766 L5.75661328,8.96084766 C5.47723828,8.96084766 5.24867578,9.13016016 5.24867578,9.33757031 C5.24867578,9.54496875 5.47725,9.71428125 5.75661328,9.71428125 Z M2.75978906,9.71428125 L3.24233203,9.71428125 C3.52169531,9.71428125 3.75026953,9.54496875 3.75026953,9.33757031 C3.75026953,9.13014844 3.52169531,8.96084766 3.24233203,8.96084766 L2.75978906,8.96084766 C2.48041406,8.96084766 2.25185156,9.13016016 2.25185156,9.33757031 C2.25185156,9.54496875 2.47619531,9.71428125 2.75978906,9.71428125 Z" id="形状" fill="#8C8C8C"></path>
                <path d="M9.78624609,1.46455078 L9.02857031,1.46455078 L9.02857031,0.36825 C9.02857031,0.165082031 8.86348828,0 8.66032031,0 C8.46137109,0 8.29630078,0.160851563 8.29205859,0.364019531 L8.29205859,1.46878125 L3.73757813,1.46878125 L3.73757813,0.36825 C3.73756641,0.165082031 3.57248438,0 3.36931641,0 C3.17036719,0 3.00528516,0.160851563 3.00528516,0.364019531 L3.00528516,1.46878125 L2.20952344,1.46878125 C0.990480469,1.46455078 0,2.31957422 0,3.93227344 L0,9.73121484 C0,10.8910078 0.880429688,11.8476211 1.99788281,11.9534414 L9.78624609,11.9619023 C11.0052891,11.9619023 11.9957695,10.9629609 11.9957695,9.73121484 L11.9957695,3.69946875 C11.9957695,2.46772266 11.0053008,1.46455078 9.78624609,1.46455078 Z M11.2465664,9.95132812 C11.2465664,10.6497305 10.6412695,11.2126992 9.90052734,11.2126992 L2.09947266,11.2126992 C1.3545,11.2126992 0.753433594,10.6455117 0.753433594,9.95132812 L0.753433594,5.21482031 L11.2507969,5.21482031 L11.2465664,9.95132812 L11.2465664,9.95132812 Z M11.2465664,3.47936719 L11.2465664,4.46561719 L0.753433594,4.46561719 L0.753433594,3.47936719 C0.753433594,2.86137891 1.29523828,2.21798437 2.25185156,2.21798437 L3.00528516,2.21798437 L3.00528516,3.34392187 C3.00952734,3.53862891 3.17459766,3.69946875 3.37354687,3.69946875 C3.57671484,3.69946875 3.74179687,3.53438672 3.74179687,3.33121875 L3.74179687,2.21798437 L8.29628906,2.21798437 L8.29628906,3.34392187 C8.30053125,3.53862891 8.46561328,3.69946875 8.66455078,3.69946875 C8.86773047,3.69946875 9.03280078,3.53438672 9.03280078,3.33121875 L9.03280078,2.21798437 L9.74814844,2.21798437 C10.4888906,2.21798437 11.3142891,2.76401953 11.2465664,3.47936719 Z" id="形状" fill="#8C8C8C"></path>
            </g>
        </g>
    </g>
</svg>
