<?xml version="1.0" encoding="UTF-8"?>
<svg width="16px" height="16px" viewBox="0 0 16 16" version="1.1" xmlns="http://www.w3.org/2000/svg" xmlns:xlink="http://www.w3.org/1999/xlink">
    <!-- Generator: Sketch 55.2 (78181) - https://sketchapp.com -->
    <!-- <title>icon/delete</title> -->
    <desc>Created with Sketch.</desc>
    <g id="页面1" stroke="none" stroke-width="1" fill="none" fill-rule="evenodd">
        <g id="11-顾客列表-鼠标移入效果" transform="translate(-362.000000, -284.000000)" fill-rule="nonzero">
            <g id="icon/delete" transform="translate(362.000000, 284.000000)">
                <rect id="矩形" fill-opacity="0.04" fill="#000000" x="0" y="0" width="16" height="16" rx="2"></rect>
                <path d="M11.0419518,5.01023891 L9.54715858,5.01023891 C9.55072895,4.99463676 9.55310919,4.97903462 9.55310919,4.96245734 L9.55310919,4.65431497 C9.55310919,4.29351536 9.19488248,4 8.75453734,4 L7.24427254,4 C6.8039274,4 6.44570068,4.29351536 6.44570068,4.65431497 L6.44570068,4.96245734 C6.44570068,4.97903462 6.44808093,4.99463676 6.45165129,5.01023891 L4.9580482,5.01023891 C4.42963404,5.01023891 4,5.36226231 4,5.79522184 L4,5.94246709 C4,6.36957582 4.41892294,6.71672355 4.936626,6.72549976 C4.9092532,6.76548025 4.89259149,6.81033642 4.89259149,6.85811799 L4.89259149,10.8785958 C4.89259149,11.4968308 5.50669444,12 6.26123178,12 L9.73876822,12 C10.4933056,12 11.1074085,11.4968308 11.1074085,10.8785958 L11.1074085,6.85909313 C11.1074085,6.81033642 11.0907468,6.76548025 11.063374,6.72647489 C11.5822672,6.71672355 12,6.36957582 12,5.94344222 L12,5.79619698 C12,5.36226231 11.570366,5.01023891 11.0419518,5.01023891 Z M7.112169,4.96245734 L7.112169,4.65431497 C7.112169,4.59580692 7.17286522,4.54607509 7.24427254,4.54607509 L8.75572746,4.54607509 C8.82713478,4.54607509 8.887831,4.59580692 8.887831,4.65431497 L8.887831,4.96245734 C8.887831,4.97903462 8.89021125,4.99463676 8.89378161,5.01023891 L7.10621839,5.01023891 C7.10978875,4.99463676 7.112169,4.97903462 7.112169,4.96245734 Z M10.4409402,6.85909313 L10.4409402,10.8795709 C10.4409402,11.1974647 10.1255579,11.4558752 9.7375781,11.4558752 L6.26123178,11.4558752 C5.87325201,11.4558752 5.55786968,11.1974647 5.55786968,10.8795709 L5.55786968,6.85909313 C5.55786968,6.81131156 5.54120797,6.76645539 5.51502529,6.72745002 L10.4837846,6.72745002 C10.4576019,6.76743052 10.4409402,6.81131156 10.4409402,6.85909313 L10.4409402,6.85909313 Z M11.3347218,5.94246709 C11.3347218,6.07411019 11.2038084,6.18235007 11.0419518,6.18235007 L4.9580482,6.18235007 C4.79738173,6.18235007 4.66527819,6.07508532 4.66527819,5.94246709 L4.66527819,5.79522184 C4.66527819,5.66357874 4.79619161,5.55533886 4.9580482,5.55533886 L11.0419518,5.55533886 C11.2026183,5.55533886 11.3347218,5.66260361 11.3347218,5.79522184 L11.3347218,5.94246709 Z M6.55757215,11.0921502 C6.74204106,11.0921502 6.89080631,10.9702584 6.89080631,10.8191126 L6.89080631,7.36421258 C6.89080631,7.2130668 6.74204106,7.09117504 6.55757215,7.09117504 C6.37310324,7.09117504 6.22433799,7.2130668 6.22433799,7.36421258 L6.22433799,10.8191126 C6.22433799,10.9702584 6.37310324,11.0921502 6.55757215,11.0921502 Z M8,11.0921502 C8.18446891,11.0921502 8.33323416,10.9702584 8.33323416,10.8191126 L8.33323416,7.36421258 C8.33323416,7.2130668 8.18446891,7.09117504 8,7.09117504 C7.81553109,7.09117504 7.66676584,7.2130668 7.66676584,7.36421258 L7.66676584,10.8191126 C7.66676584,10.9702584 7.81553109,11.0921502 8,11.0921502 Z M9.44242785,11.0921502 C9.62570663,11.0921502 9.77566201,10.9702584 9.77566201,10.8191126 L9.77566201,7.36421258 C9.77566201,7.2130668 9.62689676,7.09117504 9.44242785,7.09117504 C9.25914906,7.09117504 9.10919369,7.2130668 9.10919369,7.36421258 L9.10919369,10.8191126 C9.10919369,10.9702584 9.25914906,11.0921502 9.44242785,11.0921502 Z" id="形状" fill="#8C8C8C"></path>
            </g>
        </g>
    </g>
</svg>
