<?xml version="1.0" encoding="UTF-8"?>
<svg width="14px" height="14px" viewBox="0 0 14 14" version="1.1" xmlns="http://www.w3.org/2000/svg" xmlns:xlink="http://www.w3.org/1999/xlink">
    <!-- Generator: Sketch 55.2 (78181) - https://sketchapp.com -->
    <!-- <title>icon/download</title> -->
    <desc>Created with Sketch.</desc>
    <g id="页面1" stroke="none" stroke-width="1" fill="none" fill-rule="evenodd">
        <g id="3-客流分析" transform="translate(-702.000000, -522.000000)" fill-rule="nonzero">
            <g id="icon/download" transform="translate(701.000000, 521.000000)">
                <rect id="矩形" fill="#000000" opacity="0" x="0" y="0" width="16" height="16"></rect>
                <path d="M14.3706887,11.1730167 C14.3528608,10.7456105 14.0734342,10.5095785 13.7047722,10.5183406 C13.3394838,10.5270067 13.0985272,10.7672278 13.0642304,11.2040996 C13.0390635,11.525034 13.0606169,11.8494061 13.0536616,12.1720993 C13.0362334,12.9819183 12.8608643,13.1690394 12.0513012,13.1850126 C11.2714779,13.2004101 10.491095,13.1900652 9.71096795,13.1901291 C7.90860595,13.190273 6.10621198,13.1916001 4.30384998,13.1891058 C3.06259556,13.187395 2.95502048,13.0801557 2.94908852,11.8734218 C2.94801723,11.6582557 2.95885789,11.4417625 2.9390953,11.2282113 C2.89702781,10.7737194 2.68397227,10.5372558 2.32324084,10.5168536 C1.93385684,10.4948045 1.65004927,10.759569 1.62027745,11.2277156 C1.59304792,11.6564969 1.60834955,12.0882042 1.61117962,12.5185844 C1.62040537,13.9118638 2.23766686,14.5370559 3.63139392,14.5450185 C5.08399306,14.5533328 6.53668812,14.5468732 7.98935123,14.547209 C8.41976342,14.5475608 8.85020758,14.5477047 9.28060377,14.5475448 C10.383568,14.547161 11.486788,14.5624946 12.5893364,14.5414049 C13.5614134,14.5228255 14.2722434,13.9605188 14.3543158,13.107705 C14.41589,12.4678188 14.3975185,11.817076 14.3706887,11.1730167 Z M3.09153594,6.88852958 C4.47835567,8.27613278 5.86536728,9.66356011 7.25236289,11.0510034 C7.30934825,11.1080208 7.36738891,11.1639828 7.42399053,11.2213519 C7.6471832,11.4476305 7.90755067,11.575176 8.22296883,11.455673 C8.32585906,11.4166915 8.40233522,11.3579313 8.46773087,11.2912565 C8.51090161,11.2613728 8.55320892,11.2284831 8.59163087,11.1911324 C9.30468342,10.4977625 12.3432313,7.44944527 13.0451874,6.74465911 C13.1205922,6.66895044 13.1930551,6.58758161 13.2525188,6.49917755 C13.4433654,6.21535398 13.4172231,5.93731848 13.1908646,5.68895888 C12.9593256,5.43493909 12.6677313,5.42427433 12.3803261,5.56560252 C12.2407887,5.634212 12.1258587,5.76030252 12.0122557,5.87299411 C11.53976,6.34160439 9.83082269,8.04900677 8.6865425,9.19502977 C8.68713409,7.40502739 8.68732597,5.615041 8.6869742,3.82502263 C8.68687827,3.28754703 8.70401864,2.74909611 8.67736472,2.21289964 C8.65256553,1.71480534 8.41082544,1.46070563 8.02160133,1.44794628 C7.62235202,1.43485116 7.38011625,1.67807825 7.32568916,2.1691693 C7.30506314,2.35523514 7.31595177,2.54501047 7.31585583,2.73310695 C7.31521627,3.91555325 7.31552006,5.09803153 7.31552006,6.28050981 C7.31550408,7.1647423 7.31552006,8.0489748 7.31552006,8.93322327 C7.25413769,8.96038884 7.19277128,8.98753844 7.13138891,9.01470402 C6.77593391,8.66059211 6.4200472,8.30683195 6.06505588,7.95225636 C5.32360658,7.21154256 4.59178275,6.46091548 3.83731828,5.73372852 C3.49668523,5.40539113 3.10183294,5.40000278 2.83060883,5.6580998 C2.53827903,5.93627919 2.54857605,6.26747864 2.86695219,6.65734231 C2.9346663,6.74023013 3.01557144,6.81250113 3.09153594,6.88852958 Z" id="形状" fill="#8C8C8C"></path>
            </g>
        </g>
    </g>
</svg>
