<?xml version="1.0" encoding="UTF-8"?>
<svg width="22px" height="28px" viewBox="0 0 22 28" version="1.1" xmlns="http://www.w3.org/2000/svg" xmlns:xlink="http://www.w3.org/1999/xlink">
    <!-- Generator: Sketch 55.2 (78181) - https://sketchapp.com -->
    <!-- <title>icon/content/female</title> -->
    <desc>Created with Sketch.</desc>
    <g id="页面1" stroke="none" stroke-width="1" fill="none" fill-rule="evenodd">
        <g id="首页" transform="translate(-277.000000, -609.000000)" fill="#FFA84D">
            <g id="pie" transform="translate(275.000000, 598.000000)">
                <path d="M10.026982,14.9277344 C10.026982,14.4429253 10.026982,13.8667535 10.026982,13.1992188 C10.7693751,11.7330729 11.7455047,11 12.955371,11 C14.1652373,11 15.2237333,11.7330729 16.1308592,13.1992188 L16.1308592,14.9277344 C19.2993375,16.1456163 20.3660483,18.7012804 19.3309916,22.5947266 C20.5675832,23.3403863 20.4005502,24.4100477 18.8298928,25.8037109 C18.1446743,27.5971137 17.0784016,28.7573785 15.6310747,29.2845052 C15.6310747,29.9071181 15.6310747,30.6445312 15.6310747,31.4967448 C23.3555549,33.0575087 25.7327899,35.5585937 22.7627796,39 C20.474921,39 13.9340198,39 3.14007622,39 C0.363276503,35.9294705 2.65891177,33.4283854 10.026982,31.4967448 C10.026982,30.9518229 10.026982,30.2144097 10.026982,29.2845052 C8.65523069,28.4322917 7.77822551,27.2720269 7.39596648,25.8037109 C6.31293572,25.8037109 4.8530129,23.2246094 6.75094543,22.5947266 C5.55323697,20.796224 5.97383144,16.5563151 10.026982,14.9277344 Z" id="icon/content/female"></path>
            </g>
        </g>
    </g>
</svg>
