<?xml version="1.0" encoding="UTF-8"?>
<svg width="20px" height="19px" viewBox="0 0 20 19" version="1.1" xmlns="http://www.w3.org/2000/svg" xmlns:xlink="http://www.w3.org/1999/xlink">
    <!-- Generator: Sketch 55.2 (78181) - https://sketchapp.com -->
    <!-- <title>icon/header-set</title> -->
    <desc>Created with Sketch.</desc>
    <g id="页面1" stroke="none" stroke-width="1" fill="none" fill-rule="evenodd">
        <g id="首页" transform="translate(-1396.000000, -16.000000)" fill="#999999" fill-rule="nonzero">
            <g id="icon/header-set" transform="translate(1396.000000, 16.000000)">
                <path d="M19.7795824,7.56148492 C19.6032483,6.62645012 18.9419954,6.01160093 18.1600928,6.02552204 L18.0812065,6.02552204 C17.2320186,6.02552204 16.5429234,5.33642691 16.5429234,4.48723898 C16.5429234,4.3062645 16.6264501,4.04408353 16.6821346,3.90951276 C17.0394432,3.09512761 16.7587007,2.0974478 16.0116009,1.57540603 L13.6450116,0.255220418 L13.5475638,0.208816705 C12.812065,-0.109048724 11.8607889,0.0835266821 11.3109049,0.654292343 C10.9605568,1.0162413 10.3317865,1.4361949 10.0440835,1.4361949 C9.75406032,1.4361949 9.12064965,1.00696056 8.77030162,0.64037123 C8.22273782,0.0626450116 7.32714617,-0.157772622 6.51044084,0.187935035 L4.0649652,1.52668213 L3.9675174,1.58932715 C3.23201856,2.09976798 2.9512761,3.10440835 3.31090487,3.91183295 C3.3549884,4.01856148 3.45011601,4.29930394 3.45011601,4.48955916 C3.45011601,5.3387471 2.76102088,6.02784223 1.91183295,6.02784223 L1.85150812,6.02784223 C1.04176334,6.01392111 0.387470998,6.62645012 0.211136891,7.5638051 C0.19025522,7.67517401 0.00464037123,8.68213457 0.00464037123,9.51276102 C0.00464037123,10.3433875 0.19025522,11.350348 0.211136891,11.4617169 C0.385150812,12.3805104 1.03016241,12.9976798 1.81670534,12.9976798 L1.91183295,12.9976798 C2.76102088,12.9976798 3.45011601,13.6867749 3.45011601,14.5359629 C3.45011601,14.7262181 3.35730858,15.0069606 3.31554524,15.1044084 C2.95359629,15.9211137 3.23201856,16.9234339 3.98607889,17.4524362 L6.30162413,18.7517401 L6.39675174,18.7981439 C6.64037123,18.9048724 6.9025522,18.9582367 7.17633411,18.9582367 C7.74477958,18.9582367 8.28538283,18.7285383 8.65429234,18.324826 C8.99767981,17.9512761 9.66357309,17.4941995 9.94895592,17.4941995 C10.2459397,17.4941995 10.8955916,17.9512761 11.25058,18.3410673 C11.6171694,18.7447796 12.1740139,18.9860789 12.7401392,18.9860789 C13.0092807,18.9860789 13.2645012,18.9350348 13.5359629,18.8167053 L15.9303944,17.4965197 L16.0278422,17.4338747 C16.7610209,16.9234339 17.0417633,15.9211137 16.6798144,15.1044084 C16.6357309,14.9976798 16.5429234,14.7215777 16.5429234,14.5336427 C16.5429234,13.6844548 17.2320186,12.9953596 18.0812065,12.9953596 L18.1740139,12.9953596 C18.962877,12.9953596 19.6055684,12.3828306 19.7795824,11.4663573 C19.7819026,11.4547564 19.9883991,10.3921114 19.9883991,9.50812065 C19.9860789,8.67517401 19.800464,7.67285383 19.7795824,7.56148492 L19.7795824,7.56148492 Z M18.12529,11.1484919 C18.1113689,11.225058 18.0904872,11.2784223 18.0742459,11.3132251 C16.3016241,11.3155452 14.8584687,12.7610209 14.8584687,14.5336427 C14.8584687,15.0672854 15.0533643,15.5939675 15.1392111,15.7842227 C15.1763341,15.8654292 15.1484919,15.9791183 15.062645,16.0510441 L12.8259861,17.287703 C12.7169374,17.324826 12.549884,17.2668213 12.4941995,17.2064965 C12.3642691,17.062645 11.1832947,15.8074246 9.94663573,15.8074246 C8.6937355,15.8074246 7.46635731,17.12529 7.41531323,17.1809745 C7.36426914,17.2366589 7.24361949,17.3132251 7.07656613,17.2529002 L4.91647332,16.0440835 C4.84454756,15.9860789 4.81206497,15.8654292 4.85150812,15.774942 C4.87935035,15.7099768 5.12993039,15.1229698 5.12993039,14.5290023 C5.12993039,12.7540603 3.68909513,11.3109049 1.91415313,11.3085847 C1.89791183,11.2737819 1.87703016,11.2204176 1.86078886,11.1438515 C1.85382831,11.1067285 1.68445476,10.1948956 1.68445476,9.50580046 C1.68445476,8.81670534 1.85382831,7.90487239 1.86078886,7.86774942 C1.87470998,7.79118329 1.89559165,7.73549884 1.91415313,7.70301624 C3.68677494,7.70069606 5.12993039,6.2575406 5.12993039,4.48259861 C5.12993039,3.9025522 4.90023202,3.34338747 4.84918794,3.22969838 C4.81438515,3.14849188 4.83990719,3.03712297 4.92343387,2.96519722 L7.20185615,1.71461717 C7.31322506,1.67517401 7.49187935,1.73317865 7.54988399,1.79350348 C7.6774942,1.92807425 8.84222738,3.11136891 10.0417633,3.11136891 C11.2296984,3.11136891 12.3897912,1.9512761 12.5174014,1.81670534 C12.5730858,1.76102088 12.7099768,1.68677494 12.8677494,1.74477958 L15.0696056,2.9675174 C15.1438515,3.02552204 15.1740139,3.14617169 15.136891,3.22969838 L15.1206497,3.27146172 C15.0487239,3.44779582 14.8584687,3.96287703 14.8584687,4.48259861 C14.8584687,6.2575406 16.2993039,7.70069606 18.0742459,7.70301624 C18.0904872,7.73781903 18.1113689,7.79118329 18.1276102,7.86774942 C18.1299304,7.87703016 18.3039443,8.80974478 18.3039443,9.50580046 C18.3016241,10.099768 18.1716937,10.9071926 18.12529,11.1484919 Z" id="Shape"></path>
                <path d="M9.99303944,5.70533643 C7.89791183,5.70533643 6.19257541,7.41067285 6.19257541,9.50580046 C6.19257541,11.6009281 7.89791183,13.3062645 9.99303944,13.3062645 C12.0881671,13.3062645 13.7935035,11.6009281 13.7935035,9.50580046 C13.7935035,7.40835267 12.0881671,5.70533643 9.99303944,5.70533643 Z M9.99303944,12.0417633 C8.59396752,12.0417633 7.45475638,10.9025522 7.45475638,9.50348028 C7.45475638,8.10440835 8.59396752,6.96519722 9.99303944,6.96519722 C11.3921114,6.96519722 12.5313225,8.10440835 12.5313225,9.50348028 C12.5313225,10.9025522 11.3921114,12.0417633 9.99303944,12.0417633 L9.99303944,12.0417633 Z" id="Shape"></path>
            </g>
        </g>
    </g>
</svg>
