<?xml version="1.0" standalone="no"?><!DOCTYPE svg PUBLIC "-//W3C//DTD SVG 1.1//EN" "http://www.w3.org/Graphics/SVG/1.1/DTD/svg11.dtd"><svg t="1527217431309" class="icon" style="" viewBox="0 0 1024 1024" version="1.1" xmlns="http://www.w3.org/2000/svg" p-id="1905" xmlns:xlink="http://www.w3.org/1999/xlink" width="200" height="200"><defs><style type="text/css"></style></defs><path d="M705.594 272.176H229.83c-16.489 0-29.979 13.491-29.979 29.979 0 16.489 13.491 29.979 29.979 29.979h475.764c16.488 0 29.979-13.49 29.979-29.979s-13.491-29.979-29.979-29.979zM735.405 439.053c0-16.489-13.491-29.979-29.979-29.979H229.83c-16.489 0-29.979 13.491-29.979 29.979s13.491 29.978 29.979 29.978h475.596c16.488 0 29.978-13.491 29.979-29.978zM437 575.951v-0.004c0-16.493-13.494-29.988-29.988-29.988H229.84c-16.493 0-29.988 13.494-29.988 29.988v0.004c0 16.493 13.494 29.988 29.988 29.988h177.172c16.493 0 29.988-13.495 29.988-29.988zM229.84 682.855c-16.493 0-29.988 13.494-29.988 29.988v0.004c0 16.493 13.494 29.988 29.988 29.988h168.348c16.493 0 29.988-13.494 29.987-29.988v-0.004c0-16.493-13.494-29.988-29.988-29.988H229.84zM949.639 906.434L779.415 773.425c32.778-66.507 15.664-149.093-45.065-196.546-29.225-22.836-63.895-33.902-98.314-33.901-47.522 0.001-94.561 21.102-126.087 61.457-54.358 69.583-42.022 170.063 27.553 224.427 29.225 22.835 63.895 33.901 98.314 33.901 38.916 0 77.502-14.16 107.516-41.447l169.393 132.36c5.452 4.26 11.95 6.323 18.406 6.323 8.931 0 17.783-3.948 23.674-11.49 10.149-12.99 7.824-31.924-5.166-42.075zM635.815 802.763c-22.417 0-43.639-7.324-61.371-21.179-43.397-33.91-51.119-96.808-17.212-140.212 19.06-24.399 47.784-38.393 78.807-38.394h0.002c22.413 0 43.633 7.324 61.365 21.18 43.397 33.91 51.119 96.808 17.213 140.211-19.061 24.4-47.784 38.394-78.804 38.394z" p-id="1906"></path><path d="M485.62 899.912H213.824l-0.041 0.001h-87.928V123.994h719.714V605.94c0 16.5 13.5 30 30 30h0.143c16.5 0 30-13.5 30-30V123.994c0-32.997-27.064-59.994-60.143-59.994H125.855c-33.078 0-60.143 26.997-60.143 59.994v775.919c0 32.997 27.064 59.994 60.143 59.994h336.61v-0.001h23.155c16.499 0 29.997-13.499 29.997-29.997s-13.499-29.997-29.997-29.997z" p-id="1907"></path></svg>