<?xml version="1.0" encoding="UTF-8"?>
<svg width="11px" height="11px" viewBox="0 0 11 11" version="1.1" xmlns="http://www.w3.org/2000/svg" xmlns:xlink="http://www.w3.org/1999/xlink">
    <!-- Generator: Sketch 55.2 (78181) - https://sketchapp.com -->
    <!-- <title>icon/male-sm</title> -->
    <desc>Created with Sketch.</desc>
    <g id="页面1" stroke="none" stroke-width="1" fill="none" fill-rule="evenodd">
        <g id="4-顾客列表" transform="translate(-1212.000000, -317.000000)" fill="#1891FB">
            <path d="M1214.98839,320.725054 C1214.09234,317.924059 1215.52637,317 1217.00631,317 C1218.25279,317 1218.55439,317.219149 1218.8888,317.40867 C1220.02172,317.40867 1220.69378,318.233464 1220.02172,320.725054 C1221.05145,320.725054 1219.89032,322.234352 1219.69109,321.972337 C1219.69109,322.247625 1219.69109,322.43896 1219.69109,322.546342 C1219.50764,323.111297 1219.24021,323.393774 1218.8888,323.393774 C1218.8888,323.811015 1218.8888,324.212981 1218.8888,324.770825 C1220.83804,325.515226 1223,326.346704 1223,328 C1220.07685,328 1216.41364,328 1212.01039,328 C1211.86876,326.754284 1213.17527,325.698258 1215.92992,324.831922 C1215.92992,324.523822 1215.92992,324.04444 1215.92992,323.393774 C1215.52009,323.017056 1215.31517,322.734579 1215.31517,322.546342 C1215.31517,322.358105 1215.31517,322.237137 1215.31517,322.183437 C1214.4788,321.515887 1214.36988,321.029759 1214.98839,320.725054 Z" id="icon/male-sm"></path>
        </g>
    </g>
</svg>
