<?xml version="1.0" encoding="UTF-8"?>
<svg width="26px" height="28px" viewBox="0 0 26 28" version="1.1" xmlns="http://www.w3.org/2000/svg" xmlns:xlink="http://www.w3.org/1999/xlink">
    <!-- Generator: Sketch 55.2 (78181) - https://sketchapp.com -->
    <!-- <title>icon/content/male</title> -->
    <desc>Created with Sketch.</desc>
    <g id="页面1" stroke="none" stroke-width="1" fill="none" fill-rule="evenodd">
        <g id="首页" transform="translate(-482.000000, -673.000000)" fill="#59ADFD">
            <g id="pie" transform="translate(275.000000, 598.000000)">
                <path d="M214.063473,84.4819548 C211.94552,77.3521489 215.335057,75 218.833092,75 C221.779324,75 222.492192,75.5578343 223.282623,76.0402518 C225.96043,76.0402518 227.548935,78.1397266 225.96043,84.4819548 C228.394328,84.4819548 225.649852,88.3238054 225.178943,87.6568567 C225.178943,88.3575903 225.178943,88.8446253 225.178943,89.1179615 C224.745325,90.5560283 224.113218,91.2750617 223.282623,91.2750617 C223.282623,92.3371285 223.282623,93.3603149 223.282623,94.7802809 C227.889922,96.6751197 233,98.7916102 233,103 C226.090733,103 217.43225,103 207.024554,103 C206.689801,99.8290859 209.777919,97.1410201 216.288909,94.9358026 C216.288909,94.151548 216.288909,92.931301 216.288909,91.2750617 C215.320206,90.3161426 214.835855,89.5971092 214.835855,89.1179615 C214.835855,88.6388139 214.835855,88.3308947 214.835855,88.194204 C212.858991,86.4949857 212.60153,85.2575693 214.063473,84.4819548 Z" id="icon/content/male"></path>
            </g>
        </g>
    </g>
</svg>
