<?xml version="1.0" encoding="UTF-8"?>
<svg width="54px" height="54px" viewBox="0 0 54 54" version="1.1" xmlns="http://www.w3.org/2000/svg" xmlns:xlink="http://www.w3.org/1999/xlink">
    <!-- Generator: Sketch 55.2 (78181) - https://sketchapp.com -->
    <!-- <title>icon/month</title> -->
    <desc>Created with Sketch.</desc>
    <g id="页面1" stroke="none" stroke-width="1" fill="none" fill-rule="evenodd">
        <g id="首页" transform="translate(-1154.000000, -82.000000)">
            <g id="icon/month" transform="translate(1154.000000, 82.000000)">
                <path d="M27,0 C41.9116882,-2.73923269e-15 54,12.0883118 54,27 C54,41.9116882 41.9116882,54 27,54 C12.0883118,54 1.82615513e-15,41.9116882 0,27 C-1.82615513e-15,12.0883118 12.0883118,2.73923269e-15 27,0 Z" id="bg/icon备份-3" fill="#FBD444"></path>
                <g id="icon/分析" transform="translate(12.000000, 19.000000)" fill="#FFFFFF" fill-rule="nonzero">
                    <path d="M26.6638787,0.0135699728 C24.8638787,0.0135699728 23.3815257,1.54726563 23.3815257,3.43204823 C23.3815257,4.3929178 23.769761,5.26139606 24.369761,5.88965693 L20.5932904,10.7494395 C20.0638787,10.3429178 19.3932904,10.1027004 18.6874081,10.1027004 C17.6638787,10.1027004 16.7638787,10.5831352 16.1462316,11.3592221 L14.0285846,8.32878736 C14.8756434,7.70052649 15.4227022,6.68422215 15.4227022,5.52009171 C15.4227022,3.6353091 13.9579963,2.10161345 12.1403493,2.10161345 C10.3227022,2.10161345 8.85799632,3.6353091 8.85799632,5.52009171 C8.85799632,5.70487432 8.87564338,5.88965693 8.89329044,6.07443954 L5.66387868,8.58748302 C5.06387868,7.94074389 4.23446691,7.53422215 3.29917279,7.53422215 C1.49917279,7.53422215 0.0168198529,9.0679178 0.0168198529,10.9527004 C0.0168198529,12.837483 1.48152574,14.3711787 3.29917279,14.3711787 C5.09917279,14.3711787 6.58152574,12.837483 6.58152574,10.9527004 C6.58152574,10.4722656 6.49329044,10.0287874 6.31681985,9.62226563 L9.33446691,7.29400476 C9.91681985,8.29183084 10.9403493,8.93856997 12.1403493,8.93856997 C12.4050551,8.93856997 12.669761,8.90161345 12.9168199,8.84617867 L15.5285846,12.5972656 C15.4403493,12.8929178 15.4050551,13.2070482 15.4050551,13.5396569 C15.4050551,15.4244395 16.869761,16.9581352 18.6874081,16.9581352 C20.4874081,16.9581352 21.969761,15.4244395 21.969761,13.5396569 C21.969761,12.837483 21.7756434,12.1907439 21.4227022,11.6548743 L25.3756434,6.59183084 C25.7638787,6.77661345 26.2050551,6.86900476 26.6638787,6.86900476 C28.4815257,6.86900476 29.9462316,5.3353091 29.9462316,3.45052649 C29.9462316,1.54726562 28.4815257,0.0135699728 26.6638787,0.0135699728 L26.6638787,0.0135699728 Z M3.31681985,12.5233526 C2.48740809,12.5233526 1.81681985,11.8211787 1.81681985,10.9527004 C1.81681985,10.0842221 2.48740809,9.38204823 3.31681985,9.38204823 C4.14623162,9.38204823 4.81681985,10.0842221 4.81681985,10.9527004 C4.81681985,11.8211787 4.14623162,12.5233526 3.31681985,12.5233526 Z M10.6403493,5.52009171 C10.6403493,4.65161345 11.3109375,3.94943954 12.1403493,3.94943954 C12.969761,3.94943954 13.6403493,4.65161345 13.6403493,5.52009171 C13.6403493,6.38856997 12.969761,7.09074389 12.1403493,7.09074389 C11.3109375,7.09074389 10.6403493,6.38856997 10.6403493,5.52009171 Z M18.7050551,15.1287874 C17.8756434,15.1287874 17.2050551,14.4266135 17.2050551,13.5581352 C17.2050551,12.6896569 17.8756434,11.987483 18.7050551,11.987483 C19.5344669,11.987483 20.2050551,12.6896569 20.2050551,13.5581352 C20.2050551,14.4266135 19.5344669,15.1287874 18.7050551,15.1287874 Z M26.6638787,5.02117867 C25.8344669,5.02117867 25.1638787,4.31900476 25.1638787,3.45052649 C25.1638787,2.58204823 25.8344669,1.87987432 26.6638787,1.87987432 C27.4932904,1.87987432 28.1638787,2.58204823 28.1638787,3.45052649 C28.1815257,4.31900476 27.5109375,5.02117867 26.6638787,5.02117867 Z" id="形状"></path>
                </g>
            </g>
        </g>
    </g>
</svg>
