<?xml version="1.0" encoding="UTF-8"?>
<svg width="12px" height="12px" viewBox="0 0 12 12" version="1.1" xmlns="http://www.w3.org/2000/svg" xmlns:xlink="http://www.w3.org/1999/xlink">
    <!-- Generator: Sketch 55.2 (78181) - https://sketchapp.com -->
    <!-- <title>icon/more</title> -->
    <desc>Created with Sketch.</desc>
    <g id="页面1" stroke="none" stroke-width="1" fill="none" fill-rule="evenodd">
        <g id="4-顾客列表" transform="translate(-1382.000000, -196.000000)" fill-rule="nonzero">
            <g id="icon/more" transform="translate(1382.000000, 196.000000)">
                <rect id="矩形" fill="#000000" opacity="0" x="0" y="0" width="12" height="12"></rect>
                <path d="M12,6 C12,2.68636364 9.31363636,0 6,0 C2.68636364,0 0,2.68636364 0,6 C0,9.31363636 2.68636364,12 6,12 C9.31363636,12 12,9.31363636 12,6 Z M9.27272727,4.90909091 C9.87490909,4.90909091 10.3636364,5.39781818 10.3636364,6 C10.3636364,6.60218182 9.87490909,7.09090909 9.27272727,7.09090909 C8.67,7.09090909 8.18181818,6.60272727 8.18181818,6 C8.18181818,5.39727273 8.67,4.90909091 9.27272727,4.90909091 Z M2.72727273,7.09090909 C2.12454546,7.09090909 1.63636364,6.60272727 1.63636364,6 C1.63636364,5.39727273 2.12454546,4.90909091 2.72727273,4.90909091 C3.32945455,4.90909091 3.81818182,5.39781818 3.81818182,6 C3.81818182,6.60218182 3.32945455,7.09090909 2.72727273,7.09090909 Z M4.90909091,6 C4.90909091,5.39727273 5.39727273,4.90909091 6,4.90909091 C6.60218182,4.90909091 7.09090909,5.39781818 7.09090909,6 C7.09090909,6.60218182 6.60218182,7.09090909 6,7.09090909 C5.39727273,7.09090909 4.90909091,6.60272727 4.90909091,6 Z" id="形状" fill="#1890FF"></path>
            </g>
        </g>
    </g>
</svg>
