<?xml version="1.0" encoding="UTF-8"?>
<svg width="36px" height="20px" viewBox="0 0 36 20" version="1.1" xmlns="http://www.w3.org/2000/svg" xmlns:xlink="http://www.w3.org/1999/xlink">
    <!-- Generator: Sketch 55.2 (78181) - https://sketchapp.com -->
    <!-- <title>new</title> -->
    <desc>Created with Sketch.</desc>
    <g id="页面1" stroke="none" stroke-width="1" fill="none" fill-rule="evenodd">
        <g id="画板" transform="translate(-198.000000, -190.000000)" fill="#FBB02A" fill-rule="nonzero">
            <g id="new" transform="translate(198.000000, 190.000000)">
                <path d="M33.102,0 L2.898,0 C1.29728571,0 0,1.30801141 0,2.92196007 L0,17.0780399 C0,18.6919886 1.29728571,20 2.898,20 L33.102,20 C34.7027143,20 36,18.6919886 36,17.0780399 L36,2.92196007 C36,1.30801141 34.7027143,0 33.102,0 L33.102,0 Z M10.4078571,14.600726 L8.34042857,14.600726 L4.41771429,6.92377495 L4.41771429,14.5592429 L3.18085714,14.5592429 L3.18085714,5.48094374 L5.01171429,5.48094374 L9.04757143,13.3536427 L9.16971429,13.3536427 L9.16971429,5.43946072 L10.4065714,5.43946072 L10.4065714,14.600726 L10.4078571,14.600726 Z M18.6055714,9.36090226 L18.6055714,10.6079855 L13.5694286,10.6105782 C13.5707143,10.703915 13.572,10.7894737 13.572,10.8685507 L13.572,10.8750324 C13.5771429,12.4760176 14.0811429,13.2875292 15.0698571,13.2875292 L18.6055714,13.2875292 L18.6055714,14.5346124 L15.0698571,14.5346124 C14.2907143,14.5346124 13.6272857,14.2390459 13.1502857,13.6790251 C12.6141429,13.0490018 12.3402857,12.1078558 12.3351429,10.8815141 C12.3287143,10.4122375 12.3248571,9.70184081 12.3248571,8.71013741 C12.3248571,6.64635727 13.7468571,5.66891366 15.0775714,5.44205341 L15.1354286,5.432979 C15.687,5.37723619 18.3162857,5.41483018 18.6145714,5.41871921 L18.5965714,6.66580244 C17.4741429,6.64894996 15.6844286,6.63728286 15.2794286,6.67228416 C14.7587143,6.76173192 13.5617143,7.14026445 13.5617143,8.71013741 C13.5617143,8.94347939 13.5617143,9.15996889 13.5617143,9.3621986 L18.6055714,9.36090226 L18.6055714,9.36090226 Z M30.2091429,14.600726 L28.3705714,14.600726 L26.5345714,7.2997148 L24.4902857,14.600726 L22.5977143,14.600726 L19.9594286,5.4446461 L21.3081429,5.4446461 L23.6404286,12.9388125 L23.7175714,12.8973295 L25.7747143,5.41871921 L27.3355714,5.41871921 L29.3168571,13.2927145 L31.7352857,5.44205341 L33.0377143,5.44205341 L30.2091429,14.600726 L30.2091429,14.600726 Z" id="形状"></path>
            </g>
        </g>
    </g>
</svg>
