<?xml version="1.0" encoding="UTF-8"?>
<svg width="166px" height="100px" viewBox="0 0 166 100" version="1.1" xmlns="http://www.w3.org/2000/svg" xmlns:xlink="http://www.w3.org/1999/xlink">
    <!-- Generator: Sketch 55.2 (78181) - https://sketchapp.com -->
    <!-- <title>icon/nodata</title> -->
    <desc>Created with Sketch.</desc>
    <g id="页面1" stroke="none" stroke-width="1" fill="none" fill-rule="evenodd" opacity="0.480212984">
        <g id="23-白名单暂无数据" transform="translate(-737.000000, -310.000000)" fill-rule="nonzero">
            <g id="icon/nodata" transform="translate(737.000000, 310.000000)">
                <rect id="矩形" fill="#000000" opacity="0" x="0" y="0" width="100" height="100"></rect>
                <path d="M44.5740741,92.3467943 L47.6768396,92.3467943 C48.5144962,92.3623679 49.1853313,93.043104 49.1851853,93.877402 C49.1851853,94.7222974 48.5232346,95.4080096 47.6768396,95.4080096 L44.5740741,95.4080096 L44.5740741,98.4977962 C44.5584351,99.3319488 43.8748396,100 43.0370371,99.9998325 C42.6325406,100.005832 42.2424458,99.8504309 41.9537097,99.5682697 C41.6649735,99.2861085 41.5015975,98.9006423 41.5000001,98.4977962 L41.5000001,95.4080096 L38.3972346,95.4080096 C37.559578,95.3924361 36.8887429,94.7117 36.8888889,93.877402 C36.8888889,93.0325066 37.5508395,92.3467943 38.3972346,92.3467943 L41.5000001,92.3467943 L41.5000001,89.2570077 C41.5156391,88.422855 42.1992346,87.754826 43.0370371,87.7549714 C43.8854816,87.7549714 44.5740742,88.4141531 44.5740741,89.2570077 L44.5740741,92.3467943 L44.5740741,92.3467943 Z M5.1234568,49.9999827 L7.19333337,49.9999827 C7.7512355,50.0110963 8.19764253,50.4647083 8.19753094,51.0203878 C8.19753094,51.5836514 7.75691366,52.040793 7.19333337,52.040793 L5.1234568,52.040793 L5.1234568,54.1020113 C5.11229654,54.6575797 4.65677917,55.1021413 4.09876543,55.1020083 C3.82922859,55.1063753 3.56915937,55.0030806 3.37662723,54.8151883 C3.18409509,54.6272961 3.07513431,54.3704541 3.07407416,54.1020113 L3.07407416,52.040793 L1.00419759,52.040793 C0.446295456,52.0296794 -0.000111571421,51.5760674 2.129965e-08,51.0203878 C2.129965e-08,50.4571243 0.440617297,49.9999827 1.00419759,49.9999827 L3.07407416,49.9999827 L3.07407416,47.9387675 C3.08523442,47.3831961 3.54075173,46.9386564 4.09876543,46.9387675 C4.66439502,46.9387675 5.1234568,47.3775417 5.1234568,47.9387675 L5.1234568,49.9999827 L5.1234568,49.9999827 Z M158.827161,3.06134828 L158.827161,1.00013006 C158.8261,0.731687218 158.71714,0.474845233 158.524608,0.286952964 C158.332075,0.0990606949 158.072006,-0.00423398155 157.802469,0.000133046205 C157.244456,0 156.788938,0.444561616 156.777778,1.00013006 L156.777778,3.06134828 L154.707901,3.06134828 C154.438331,3.06240402 154.18041,3.17090905 153.991729,3.36263585 C153.803047,3.55436265 153.699319,3.81334401 153.703704,4.08175339 C153.703704,4.6286905 154.154568,5.1021585 154.707901,5.1021585 L156.777778,5.1021585 L156.777778,7.16337681 C156.777778,7.72459966 157.23684,8.16337385 157.802469,8.16337385 C158.360483,8.16348497 158.816,7.71894526 158.827161,7.16337681 L158.827161,5.1021585 L160.897037,5.1021585 C161.460617,5.1021585 161.901235,4.64501706 161.901235,4.08175339 C161.901346,3.52607385 161.454939,3.07246191 160.897037,3.06134828 L158.827161,3.06134828 L158.827161,3.06134828 Z M53.2839414,34.6939063 C53.2839414,33.5675945 54.2002416,32.6542225 55.331284,32.6530961 L73.7777779,32.6530961 C74.5100586,32.6529366 75.1867824,33.041878 75.552969,33.6733724 C75.9191556,34.3048667 75.9191556,35.0829459 75.552969,35.7144403 C75.1867824,36.3459347 74.5100586,36.734876 73.7777779,36.7347258 L55.3333334,36.7347258 C54.7893024,36.7363491 54.2670807,36.5218601 53.8823909,36.1387795 C53.4977011,35.7556989 53.2823112,35.2356617 53.2839414,34.6939063 L53.2839414,34.6939063 Z M53.2839135,46.9387675 C53.2839135,45.8122403 54.195926,44.8979573 55.3189878,44.8979573 L79.9402717,44.8979573 C81.0633334,44.8979573 81.9753088,45.804077 81.9753088,46.9387675 C81.9753088,48.0652947 81.0633335,48.9795777 79.9402717,48.9795777 L55.3189878,48.9795777 C54.7769369,48.9790445 54.2574515,48.7634018 53.875512,48.3803788 C53.4935725,47.9973558 53.2806784,47.4785414 53.2839135,46.9387675 Z M53.2839342,59.1836286 C53.2839342,58.0571014 54.1979753,57.1428185 55.3292346,57.1428185 L65.5843457,57.1428185 C66.7135556,57.1428185 67.6296297,58.0489382 67.6296297,59.1836286 C67.6296297,60.3101559 66.715605,61.224443 65.5843457,61.224443 L55.3292346,61.224443 C54.7857454,61.22553 54.2642602,61.0107361 53.8803394,60.627655 C53.4964186,60.2445739 53.2817669,59.7248412 53.2839342,59.1836286 Z M18.4444445,22.4490452 C15.0489161,22.4490452 12.2962964,19.7079396 12.2962964,16.3266146 C12.2962964,12.9452896 15.0489161,10.204184 18.4444445,10.204184 C21.839973,10.204184 24.5925927,12.9452896 24.5925927,16.3266146 C24.5925927,19.7079396 21.839973,22.4490452 18.4444445,22.4490452 L18.4444445,22.4490452 Z M25.617284,63.2652491 C24.5188924,63.2654444 23.5038527,62.6820228 22.9546002,61.7347993 C22.4053477,60.7875757 22.4053477,59.6204918 22.9546002,58.6732683 C23.5038527,57.7260447 24.5188924,57.1426231 25.617284,57.1428185 C27.3148338,57.1431204 28.6908091,58.5135848 28.6908091,60.2040338 C28.6908091,61.8944828 27.3148338,63.2649471 25.617284,63.2652491 L25.617284,63.2652491 Z M18.4444445,19.3878299 C19.5428362,19.3880252 20.5578759,18.8046036 21.1071283,17.8573801 C21.6563808,16.9101565 21.6563808,15.7430726 21.1071283,14.7958491 C20.5578759,13.8486255 19.5428362,13.2652039 18.4444445,13.2653992 C16.7468947,13.2657012 15.3709195,14.6361655 15.3709195,16.3266146 C15.3709195,18.0170636 16.7468947,19.3875279 18.4444445,19.3878299 L18.4444445,19.3878299 Z M159.851852,48.9795777 C156.456324,48.9795777 153.703704,46.2384722 153.703704,42.8571471 C153.703704,39.4758221 156.456324,36.7347165 159.851852,36.7347165 C163.24738,36.7347165 166,39.4758221 166,42.8571471 C166,46.2384721 163.24738,48.9795777 159.851852,48.9795777 L159.851852,48.9795777 Z M159.851852,45.9183624 C160.950244,45.9185578 161.965283,45.3351361 162.514536,44.3879126 C163.063788,43.4406891 163.063788,42.2736052 162.514536,41.3263816 C161.965283,40.3791581 160.950244,39.7957365 159.851852,39.7959318 C158.154302,39.7962338 156.778327,41.1666981 156.778327,42.8571471 C156.778327,44.5475961 158.154302,45.9180605 159.851852,45.9183624 L159.851852,45.9183624 Z M127.061729,97.9590223 C124.798043,97.9590223 122.962963,96.1316186 122.962963,93.8774019 C122.962963,91.6231852 124.798043,89.7957815 127.061729,89.7957815 C129.325414,89.7957815 131.160494,91.6231852 131.160494,93.8774019 C131.160494,96.1316186 129.325414,97.9590223 127.061729,97.9590223 Z M127.061729,95.9182122 C127.793902,95.9182122 128.470459,95.529236 128.836546,94.8978071 C129.202633,94.2663782 129.202633,93.4884257 128.836546,92.8569968 C128.470459,92.2255679 127.793902,91.8365917 127.061729,91.8365917 C125.929886,91.8365917 125.012346,92.7502937 125.012346,93.877402 C125.012346,95.0045103 125.929886,95.9182122 127.061729,95.9182122 Z M101.766198,55.4530276 C109.344042,57.0530643 114.764516,63.7145777 114.765434,71.4284898 C114.765434,73.4652184 114.818716,73.4652184 98.5261235,73.4652184 C82.233531,73.4652184 81.9753088,73.4652184 81.9753088,71.4284898 C81.9753088,63.5713706 87.5496297,57.0101658 94.9745433,55.4530276 L96.6734816,57.1428185 L96.3209878,57.1428185 L94.6773828,65.3305489 C94.4519508,66.4407497 94.9376544,67.985643 95.7594569,68.7733958 L98.5261235,71.4284898 L101.046864,68.8203344 C101.835877,68.0040104 102.28879,66.4448313 102.063358,65.3305489 L100.419753,57.1428185 L100.067259,57.1428185 L101.766198,55.4530276 L101.766198,55.4530276 Z M98.3703705,53.0611981 C93.8429992,53.0611981 90.1728396,49.4063907 90.1728396,44.8979573 C90.1728396,40.3895239 93.8429992,36.7347165 98.3703705,36.7347165 C102.897742,36.7347165 106.567901,40.3895239 106.567901,44.8979573 C106.567901,49.4063907 102.897742,53.0611981 98.3703705,53.0611981 L98.3703705,53.0611981 Z M38.9382717,71.4284898 L38.9382717,28.5714757 C38.9382717,24.0612852 42.6087161,20.4082349 47.1521976,20.4082349 L49.1851853,20.4082349 L49.1851853,18.3674248 C49.1851853,13.8572343 52.8556298,10.2041715 57.3991112,10.2041715 L127.045333,10.2041715 C129.222127,10.2003915 131.311099,11.058705 132.851863,12.5899621 C134.392628,14.1212192 135.258719,16.1997337 135.259259,18.3674248 L135.259259,61.2244388 C135.259259,65.7346293 131.588815,69.3876796 127.045333,69.3876796 L125.012346,69.3876796 L125.012346,71.4284898 C125.012346,72.9162405 124.612716,74.3101138 123.915926,75.5101102 L135.265408,75.5101102 C136.392568,75.5101102 137.308642,76.4162299 137.308642,77.5509204 C137.308642,78.6774476 136.380272,79.5917317 135.265408,79.5917317 L34.8333581,79.5917317 C34.2902237,79.5917317 33.7692665,79.3772441 33.3857897,78.9942223 C33.0023129,78.6112005 32.787942,78.0917787 32.790107,77.5509204 C32.790107,76.4243932 33.7184939,75.5101102 34.8333581,75.5101102 L40.0346915,75.5101102 C39.3137731,74.2698204 38.9354815,72.8615619 38.9382717,71.4284898 Z M125.012346,65.3060593 L127.05558,65.3060593 C129.317868,65.3060593 131.153717,63.4833759 131.160494,61.2305613 L131.160494,18.3613024 C131.158865,17.278789 130.725468,16.2412572 129.955647,15.4769528 C129.185826,14.7126484 128.142641,14.2841794 127.05558,14.2857998 L57.3888642,14.2857998 C55.1265764,14.2857998 53.2907273,16.1084877 53.2839507,18.3613024 L53.2839507,20.4082349 L116.79842,20.4082349 C118.975213,20.4044424 121.064185,21.2627559 122.604949,22.794013 C124.145714,24.3252701 125.011805,26.4037846 125.012346,28.5714757 L125.012346,65.3060593 Z M43.0370371,28.5653534 L43.0370371,71.4346122 C43.0386665,72.5171256 43.4720629,73.5546574 44.2418838,74.3189618 C45.0117047,75.0832662 46.0548902,75.5117352 47.1419507,75.5101148 L116.808667,75.5101148 C119.070955,75.5101148 120.906804,73.6874269 120.91358,71.4346122 L120.91358,28.5653534 C120.911951,27.4828399 120.478555,26.4453081 119.708734,25.6810037 C118.938913,24.9166993 117.895727,24.4882304 116.808667,24.4898508 L47.1419507,24.4898508 C44.8796629,24.4898508 43.0438138,26.3125387 43.0370371,28.5653534 Z M141.407391,77.5509204 C141.407391,76.4243932 142.335778,75.5101102 143.450642,75.5101102 L151.660469,75.5101102 C152.78763,75.5101102 153.703704,76.4162299 153.703704,77.5509204 C153.703704,78.6774476 152.775334,79.5917317 151.660469,79.5917317 L143.450642,79.5917317 C142.907508,79.592278 142.386551,79.3772441 142.003074,78.9942223 C141.619597,78.6112005 141.405226,78.0917787 141.407391,77.5509204 Z" id="形状" fill="#8C8C8C"></path>
            </g>
        </g>
    </g>
</svg>
