<?xml version="1.0" encoding="UTF-8"?>
<svg width="12px" height="12px" viewBox="0 0 12 12" version="1.1" xmlns="http://www.w3.org/2000/svg" xmlns:xlink="http://www.w3.org/1999/xlink">
    <!-- Generator: Sketch 55.2 (78181) - https://sketchapp.com -->
    <!-- <title></title> -->
    <desc>Created with Sketch.</desc>
    <g id="页面1" stroke="none" stroke-width="1" fill="none" fill-rule="evenodd">
        <g id="首页" transform="translate(-1006.000000, -540.000000)" fill-rule="nonzero">
            <g id="感叹号" transform="translate(1006.000000, 540.000000)">
                <rect id="矩形" fill="#000000" opacity="0" x="0" y="0" width="12" height="12"></rect>
                <path d="M6.54675,5.191875 L5.4555,5.191875 C5.30475,5.191875 5.182875,5.314125 5.182875,5.464125 L5.182875,8.77725 C5.182875,8.927625 5.305125,9.0495 5.4555,9.0495 L6.54675,9.0495 C6.6975,9.0495 6.81937586,8.92725 6.81937586,8.77725 L6.81937586,5.464125 C6.81975,5.31375 6.6975,5.191875 6.54675,5.191875 Z M6,-1.13686838e-13 C2.692875,-1.13686838e-13 0,2.691375 0,6.000375 C0,9.309375 2.692125,12 6,12 C9.30825,12 12,9.309375 12,6.000375 C12,2.691375 9.309,-1.13686838e-13 6,-1.13686838e-13 Z M5.99475,11.23725 C3.10275,11.23725 0.751125,8.8845 0.751125,5.993625 C0.751125,3.100875 3.103125,0.748875 5.99475,0.748875 C8.886375,0.748875 11.239125,3.1005 11.239125,5.993625 C11.2395,8.884875 8.88675,11.23725 5.99475,11.23725 Z M6.0015,2.93775 C5.775375,2.93775 5.550375,3.03075 5.39025,3.1905 C5.230125,3.35025 5.137125,3.574875 5.137125,3.800625 C5.137125,4.026375 5.230125,4.251375 5.39025,4.41075 C5.550375,4.570125 5.775,4.6635 6.0015,4.6635 C6.228,4.6635 6.452625,4.5705 6.61275,4.41075 C6.7725,4.251 6.865875,4.026375 6.865875,3.800625 C6.865875,3.574875 6.772875,3.349875 6.61275,3.1905 C6.453,3.03075 6.228,2.93775 6.0015,2.93775 Z" id="形状" fill="#8C8C8C"></path>
            </g>
        </g>
    </g>
</svg>
