<?xml version="1.0" encoding="UTF-8"?>
<svg width="8px" height="8px" viewBox="0 0 8 8" version="1.1" xmlns="http://www.w3.org/2000/svg" xmlns:xlink="http://www.w3.org/1999/xlink">
    <!-- Generator: Sketch 55.2 (78181) - https://sketchapp.com -->
    <!-- <title>icon/sort-down</title> -->
    <desc>Created with Sketch.</desc>
    <g id="页面1" stroke="none" stroke-width="1" fill="none" fill-rule="evenodd">
        <g id="4-顾客列表" transform="translate(-311.000000, -158.000000)" fill-rule="nonzero">
            <g id="tab_style_3" transform="translate(236.000000, 148.000000)">
                <g id="icon/sort-down" transform="translate(74.000000, 9.000000)">
                    <rect id="矩形" fill="#000000" opacity="0" x="0" y="0" width="10" height="10"></rect>
                    <path d="M3.66210937,8.76953125 C3.46875,8.76953125 3.31054687,8.61132812 3.31054687,8.41796875 L3.31054687,1.58203125 C3.31054687,1.38867188 3.46875,1.23046875 3.66210937,1.23046875 C3.85546875,1.23046875 4.01367187,1.38867188 4.01367187,1.58203125 L4.01367187,8.41796875 C4.01367187,8.61132812 3.85546875,8.76953125 3.66210937,8.76953125 Z" id="路径" fill="#1890FF"></path>
                    <path d="M3.88867187,8.6875 C3.74023437,8.81152344 3.51757812,8.79199219 3.39355469,8.64453125 L1.33398437,6.19042969 C1.20996094,6.04199219 1.22949219,5.81933594 1.37695312,5.6953125 C1.52539062,5.57128906 1.74804687,5.59082031 1.87207031,5.73828125 L3.93066406,8.19238281 C4.05566406,8.34082031 4.03613281,8.56347656 3.88867187,8.6875 L3.88867187,8.6875 Z" id="路径" fill="#1890FF"></path>
                    <path d="M6.33789062,1.23046875 C6.53125,1.23046875 6.68945312,1.38867188 6.68945312,1.58203125 L6.68945312,8.41796875 C6.68945312,8.61132812 6.53125,8.76953125 6.33789062,8.76953125 C6.14453125,8.76953125 5.98632812,8.61132812 5.98632812,8.41796875 L5.98632812,1.58203125 C5.98632812,1.38867188 6.14453125,1.23046875 6.33789062,1.23046875 Z" id="路径" fill="#8C8C8C"></path>
                    <path d="M6.11132812,1.3125 C6.25976562,1.18847656 6.48242187,1.20800781 6.60644531,1.35546875 L8.66503906,3.80957031 C8.7890625,3.95800781 8.76953125,4.18066406 8.62207031,4.3046875 C8.47363281,4.42871094 8.25097656,4.40917969 8.12695312,4.26171875 L6.06835937,1.80761719 C5.94433594,1.65917969 5.96386719,1.43652344 6.11132812,1.3125 Z" id="路径" fill="#8C8C8C"></path>
                </g>
            </g>
        </g>
    </g>
</svg>
