<?xml version="1.0" encoding="UTF-8"?>
<svg width="153px" height="98px" viewBox="0 0 153 98" version="1.1" xmlns="http://www.w3.org/2000/svg" xmlns:xlink="http://www.w3.org/1999/xlink">
    <!-- Generator: Sketch 55.2 (78181) - https://sketchapp.com -->
    <title></title>
    <desc>Created with Sketch.</desc>
    <g id="页面1" stroke="none" stroke-width="1" fill="none" fill-rule="evenodd" opacity="0.482979911">
        <g id="43-门店对比-未选择门店" transform="translate(-744.000000, -314.000000)">
            <g id="数据" transform="translate(744.000000, 310.000000)">
                <rect id="矩形" fill="#000000" fill-rule="nonzero" opacity="0" x="34.6153846" y="0.0120075047" width="86.1538462" height="86.1538462"></rect>
                <path d="M115.90625,4.62739212 L39.4783654,4.62739212 C36.7944712,4.62739212 34.6153846,6.81002544 34.6153846,9.4982881 L34.6153846,66.4405789 C34.6153846,69.1288416 36.7944712,71.3114749 39.4783654,71.3114749 L75.109375,71.3114749 L75.109375,77.2357653 L48.9519231,77.2357653 C47.765625,77.2357653 46.7980769,78.2048882 46.7980769,79.3931172 C46.7980769,80.5813461 47.765625,81.550469 48.9519231,81.550469 L106.432692,81.550469 C107.61899,81.550469 108.586538,80.5813461 108.586538,79.3931172 C108.586538,78.2048882 107.61899,77.2357653 106.432692,77.2357653 L80.2752404,77.2357653 L80.2752404,71.3114749 L115.90625,71.3114749 C118.590144,71.3114749 120.769231,69.1288416 120.769231,66.4405789 L120.769231,9.4982881 C120.769231,6.81002544 118.590144,4.62739212 115.90625,4.62739212 Z M117.319712,66.4405789 C117.319712,67.2243044 116.680288,67.8647682 115.897837,67.8647682 L39.4783654,67.8647682 C38.6959135,67.8647682 38.0564904,67.2243044 38.0564904,66.4405789 L38.0564904,9.4982881 C38.0564904,8.71456262 38.6959135,8.07409879 39.4783654,8.07409879 L115.90625,8.07409879 C116.688702,8.07409879 117.328125,8.71456262 117.328125,9.4982881 L117.328125,66.4405789 L117.319712,66.4405789 Z" id="形状" fill="#8C8C8C" fill-rule="nonzero"></path>
                <path d="M43.0769231,13.0889306 L48.222013,13.0889306 L48.222013,16.5452003 L43.0769231,16.5452003 L43.0769231,13.0889306 Z M43.0769231,20.5578452 L92.2318049,20.5578452 L92.2318049,24.014115 L43.0769231,24.014115 L43.0769231,20.5578452 Z M81.5058846,44.2796577 L85.7962527,44.2796577 L85.7962527,64.2164332 L81.5058846,64.2164332 L81.5058846,44.2796577 Z M90.0866208,37.15637 L94.376989,37.15637 L94.376989,64.3934617 L90.0866208,64.3934617 L90.0866208,37.15637 Z M98.6673571,42.0878768 L102.957725,42.0878768 L102.957725,64.3934617 L98.6673571,64.3934617 L98.6673571,42.0878768 Z M107.248093,37.15637 L111.538462,37.15637 L111.538462,64.3934617 L107.248093,64.3934617 L107.248093,37.15637 Z M43.0769231,28.0351898 L82.4276433,28.0351898 L82.4276433,31.4914596 L43.0769231,31.4914596 L43.0769231,28.0351898 Z M86.0392618,28.0351898 L106.175501,28.0351898 L106.175501,31.4914596 L86.0392618,31.4914596 L86.0392618,28.0351898 Z M52.8810846,13.0889306 L58.0261746,13.0889306 L58.0261746,16.5452003 L52.8810846,16.5452003 L52.8810846,13.0889306 Z M62.6852462,13.0889306 L67.8303361,13.0889306 L67.8303361,16.5452003 L62.6852462,16.5452003 L62.6852462,13.0889306 Z M58.7635816,49.8602688 L58.7635816,34.3239148 C50.2331231,34.3239148 43.3199322,41.2786039 43.3199322,49.8602688 C43.3199322,58.4419337 50.2331231,65.3966229 58.7635816,65.3966229 C67.2940401,65.3966229 74.207231,58.4419337 74.207231,49.8602688 L58.7635816,49.8602688 Z M58.7635816,62.8086355 C51.666039,62.8086355 45.8924772,57.0004164 45.8924772,49.8602688 C45.8924772,43.6052636 50.3252989,38.3702794 56.1910366,37.1732298 L56.1910366,52.4482562 L71.3749176,52.4482562 C70.1850108,58.3492046 64.9812635,62.8086355 58.7635816,62.8086355 Z" id="形状" fill="#8C8C8C" fill-rule="nonzero"></path>
                <path d="M45.1923077,94.5119459 L48.2203077,94.5119459 C49.0377797,94.5272079 49.6924501,95.1943221 49.6923077,96.0119255 C49.6923077,96.8399141 49.0463077,97.511905 48.2203077,97.511905 L45.1923077,97.511905 L45.1923077,100.539864 C45.1770455,101.357324 44.5099222,102.012008 43.6923077,102.011843 C43.2975581,102.017723 42.9168632,101.865431 42.6350845,101.588916 C42.3533059,101.312401 42.1938666,100.934648 42.1923077,100.539864 L42.1923077,97.511905 L39.1643077,97.511905 C38.3468356,97.496643 37.6921653,96.8295288 37.6923077,96.0119255 C37.6923077,95.1839368 38.3383077,94.5119459 39.1643077,94.5119459 L42.1923077,94.5119459 L42.1923077,91.4839874 C42.2075699,90.6665265 42.8746932,90.0118651 43.6923077,90.0120075 C44.5203077,90.0120075 45.1923077,90.6579987 45.1923077,91.4839874 L45.1923077,94.5119459 L45.1923077,94.5119459 Z" id="路径" fill="#8C8C8C"></path>
                <path d="M6.24999995,58.7499388 L8.77499996,58.7499388 C9.45557334,58.7635528 10.0001361,59.31922 10,59.9999185 C10,60.6899072 9.46250001,61.2498981 8.77499996,61.2498981 L6.24999995,61.2498981 L6.24999995,63.774857 C6.23638577,64.4554193 5.68070946,65 5,64.999837 C4.67119747,65.0051865 4.35394436,64.8786522 4.11907835,64.6484873 C3.88421234,64.4183223 3.75129331,64.1036951 3.75000005,63.774857 L3.75000005,61.2498981 L1.22500004,61.2498981 C0.544426657,61.2362842 -0.000136129674,60.6806169 0,59.9999185 C0,59.3099298 0.537499986,58.7499388 1.22500004,58.7499388 L3.75000005,58.7499388 L3.75000005,56.2249801 C3.76361422,55.5444178 4.31929046,54.9998639 5,55 C5.68999988,55 6.24999995,55.5374912 6.24999995,56.2249801 L6.24999995,58.7499388 L6.24999995,58.7499388 Z" id="路径" fill="#8C8C8C"></path>
                <path d="M142.000049,8.00008142 L142.000049,5.98011442 C141.999014,5.71704394 141.892681,5.46534214 141.704791,5.28121017 C141.516901,5.09707819 141.263103,4.99585075 141.000065,5.00013038 C140.455506,5 140.010973,5.43566459 140.000081,5.98011442 L140.000081,8.00008142 L137.980114,8.00008142 C137.717044,8.00111604 137.465342,8.10744955 137.28121,8.29533932 C137.097078,8.48322908 136.995851,8.73702744 137.00013,9.00006513 C137.00013,9.53605638 137.440123,10.0000488 137.980114,10.0000488 L140.000081,10.0000488 L140.000081,12.0200159 C140.000081,12.570007 140.448074,13 141.000065,13 C141.544624,13.0001089 141.989158,12.5644658 142.000049,12.0200159 L142.000049,10.0000488 L144.020016,10.0000488 C144.570007,10.0000488 145,9.55205619 145,9.00006513 C145.000109,8.45550643 144.564466,8.01097264 144.020016,8.00008142 L142.000049,8.00008142 L142.000049,8.00008142 Z" id="路径" fill="#8C8C8C"></path>
                <path d="M38.0005358,82 C36.9286115,82.0001914 35.9380306,81.4284365 35.4020131,80.5001547 C34.8659956,79.5718728 34.8659956,78.4281272 35.4020131,77.4998453 C35.9380306,76.5715635 36.9286115,75.9998086 38.0005358,76 C39.6571808,76.0002959 41,77.343355 41,79 C41,80.656645 39.6571808,81.9997041 38.0005358,82 L38.0005358,82 Z" id="路径" fill="#8C8C8C"></path>
                <path d="M13.5521466,36.4523388 C10.5149642,36.4517962 8.05312898,33.9895213 8.05312898,30.9523388 C8.05312898,27.9151563 10.5149642,25.4528814 13.5521467,25.4523388 C15.5173414,25.4519879 17.3334063,26.5002052 18.316105,28.2020552 C19.2988037,29.9039053 19.2988037,32.0007723 18.316105,33.7026224 C17.3334063,35.4044724 15.5173414,36.4526897 13.5521467,36.4523388 Z" id="路径" stroke="#8C8C8C" stroke-width="3"></path>
                <path d="M147,58.4498044 C149.486686,58.4498044 151.5,56.4449117 151.5,53.9749022 C151.5,51.5048928 149.486686,49.5 147,49.5 C144.513314,49.5 142.5,51.5048928 142.5,53.9749022 C142.5,56.4449117 144.513314,58.4498044 147,58.4498044 Z" id="路径" stroke="#8C8C8C" stroke-width="3"></path>
                <path d="M115,97 C116.656854,97 118,95.6568542 118,94 C118,92.3431458 116.656854,91 115,91 C113.343146,91 112,92.3431458 112,94 C112,95.6568542 113.343146,97 115,97 Z" id="路径" stroke="#8C8C8C" stroke-width="2"></path>
                <path d="M112.307705,79.6273916 C112.307705,78.5658534 113.021836,77.7043152 113.879424,77.7043152 L124.194676,77.7043152 C125.061722,77.7043152 125.766394,78.5581611 125.766394,79.6273916 C125.766394,80.6889298 125.052263,81.5504758 124.194676,81.5504758 L113.879424,81.5504758 C113.461628,81.5509839 113.060892,81.3483552 112.76591,80.9874299 C112.470928,80.6265045 112.306027,80.137048 112.307705,79.6273916 Z" id="路径" fill="#8C8C8C"></path>
            </g>
        </g>
    </g>
</svg>
