<?xml version="1.0" encoding="UTF-8"?>
<svg width="54px" height="54px" viewBox="0 0 54 54" version="1.1" xmlns="http://www.w3.org/2000/svg" xmlns:xlink="http://www.w3.org/1999/xlink">
    <!-- Generator: Sketch 55.2 (78181) - https://sketchapp.com -->
    <!-- <title>编组</title> -->
    <desc>Created with Sketch.</desc>
    <g id="页面1" stroke="none" stroke-width="1" fill="none" fill-rule="evenodd">
        <g id="首页" transform="translate(-236.000000, -82.000000)">
            <g id="编组" transform="translate(236.000000, 82.000000)">
                <path d="M27,0 C41.9116882,-2.73923269e-15 54,12.0883118 54,27 C54,41.9116882 41.9116882,54 27,54 C12.0883118,54 1.82615513e-15,41.9116882 0,27 C-1.82615513e-15,12.0883118 12.0883118,2.73923269e-15 27,0 Z" id="bg/icon" fill="#FF9B32" opacity="0.874101"></path>
                <g id="icon/人群分组" transform="translate(12.000000, 15.000000)" fill="#FFFFFF" fill-rule="nonzero">
                    <path d="M9.05660377,9.39130435 C6.24131082,9.39130435 3.96226415,7.29061785 3.96226415,4.69565217 C3.96226415,2.1006865 6.24131082,1.94289029e-16 9.05660377,1.94289029e-16 C11.8718967,1.94289029e-16 14.1509434,2.1006865 14.1509434,4.69565217 C14.1509434,7.29061785 11.8718967,9.39130435 9.05660377,9.39130435 Z M9.05660377,1.56521739 C7.19200888,1.56521739 5.66037736,2.9769821 5.66037736,4.69565217 C5.66037736,6.41432225 7.19200888,7.82608696 9.05660377,7.82608696 C10.9211987,7.82608696 12.4528302,6.41432225 12.4528302,4.69565217 C12.4528302,2.9769821 10.9211987,1.56521739 9.05660377,1.56521739 Z" id="形状"></path>
                    <path d="M0.822544467,17.4257447 C0.37840891,17.4257447 0.0294452589,17.1013982 0.0294452589,16.6885936 C0.0294452589,11.9118548 4.20114709,8.03444031 9.34042996,8.03444031 C11.6562796,8.03444031 13.8928194,8.83056344 15.6217757,10.2901225 C15.9390154,10.5702399 15.9707393,11.0272736 15.6693616,11.336877 C15.3679839,11.6317374 14.8762624,11.6612235 14.5431608,11.3811061 C13.1155822,10.1721783 11.25973,9.5087424 9.34042996,9.5087424 C5.07355622,9.5087424 1.61564367,12.722721 1.61564367,16.6885936 C1.61564367,17.1013982 1.26668002,17.4257447 0.822544467,17.4257447 L0.822544467,17.4257447 Z M19.4688836,14.5842842 C16.5136037,14.5842842 14.1212342,12.3791436 14.1212342,9.65514653 C14.1212342,6.93114941 16.5136037,4.72600889 19.4688836,4.72600889 C22.4241635,4.72600889 24.8165329,6.93114941 24.8165329,9.65514653 C24.8165329,12.3791436 22.4241635,14.5842842 19.4688836,14.5842842 Z M19.4688836,6.34743574 C17.498697,6.34743574 15.8803294,7.83914845 15.8803294,9.65514653 C15.8803294,11.4711446 17.498697,12.9628573 19.4688836,12.9628573 C21.4390702,12.9628573 23.0574377,11.4711446 23.0574377,9.65514653 C23.0574377,7.83914845 21.4390702,6.34743574 19.4688836,6.34743574 Z" id="形状"></path>
                    <path d="M29.0207704,23.6642746 C28.5282237,23.6642746 28.1412228,23.3075607 28.1412228,22.8535611 C28.1412228,18.4919229 24.3063953,14.9572123 19.5744293,14.9572123 C14.8424633,14.9572123 11.0076358,18.4919229 11.0076358,22.8535611 C11.0076358,23.3075607 10.6206348,23.6642746 10.1280882,23.6642746 C9.63554154,23.6642746 9.2485406,23.3075607 9.2485406,22.8535611 C9.2485406,17.6001381 13.8749609,13.3357855 19.5744293,13.3357855 C25.2738976,13.3357855 29.9003179,17.6001381 29.9003179,22.8535611 C29.9003179,23.3075607 29.513317,23.6642746 29.0207704,23.6642746 Z" id="形状"></path>
                </g>
            </g>
        </g>
    </g>
</svg>
