<?xml version="1.0" encoding="UTF-8"?>
<svg width="21px" height="12px" viewBox="0 0 21 12" version="1.1" xmlns="http://www.w3.org/2000/svg" xmlns:xlink="http://www.w3.org/1999/xlink">
    <!-- Generator: Sketch 55.2 (78181) - https://sketchapp.com -->
    <title>icon/vip</title>
    <desc>Created with Sketch.</desc>
    <g id="页面1" stroke="none" stroke-width="1" fill="none" fill-rule="evenodd">
        <g id="顾客列表" transform="translate(-383.000000, -196.000000)" fill="#FBD444" fill-rule="nonzero">
            <g id="icon/vip" transform="translate(383.000000, 196.000000)">
                <path d="M14.7831959,2.76538164 L14.2684236,6.00000687 L15.1914405,6.00000687 C16.4824243,5.96395617 17.3540772,5.90380366 17.7493236,4.25353609 C17.9610466,3.36953135 17.5473843,2.76538164 16.0276219,2.76538164 L14.7831959,2.76538164 Z" id="路径"></path>
                <path d="M19.6002973,0 L1.39960571,0 C1.3994118,0 1.39916941,0 1.39895126,0 C0.626819364,0 0.000824124454,0.631942376 0,1.41173302 L0,10.588218 C0.000751407591,11.3681066 0.626819364,12 1.39895126,12 C1.39919365,12 1.3994118,12 1.39965419,12 L19.6003216,12 C19.6006124,12 19.600976,12 19.6014123,12 C20.3734715,12 20.999394,11.3680331 21,10.588267 L21,1.41178199 C20.9994425,0.631917889 20.3734715,0 19.6014123,0 C19.601073,0 19.6007094,0 19.6002731,0 L19.6002973,0 Z M3.74457913,10.2353949 L2.18654761,1.6928602 L3.40096771,1.6928602 L4.51353572,8.37144898 C4.54044096,8.53533577 4.55580846,8.72414961 4.55580846,8.91658743 C4.55580846,8.99442937 4.55326337,9.07168364 4.54831862,9.14830126 L4.57607223,9.1378701 C4.73980637,8.59804518 4.99938133,8.13121391 5.33756322,7.7346828 L8.39387724,1.6928602 L9.56444907,1.6928602 L4.95858717,10.2353949 L3.74455489,10.2353949 L3.74457913,10.2353949 Z M11.6874421,2.62502908 L10.520797,9.30361785 L11.333917,9.30361785 L11.1716372,10.2353949 L8.44943292,10.2353949 L8.61239142,9.30325056 L9.42728083,9.30325056 L10.5939259,2.62466178 L9.78080598,2.62466178 L9.94376447,1.6925174 L12.6659687,1.6925174 L12.5030102,2.62466178 L11.6874179,2.62466178 L11.6874421,2.62502908 Z M18.8928834,4.26788826 C18.7462862,5.10621748 18.3321799,5.78538576 17.6505643,6.30539311 C16.9689487,6.82540045 16.1881151,7.07111229 15.3080633,7.04252862 L14.20856,7.04252862 L13.6503369,10.2353705 L12.5550998,10.2353705 L14.0491404,1.6928602 L16.4556566,1.6928602 C17.3708387,1.6928602 18.0425567,1.91524476 18.4708105,2.36001388 C18.8990644,2.80478299 19.0397796,3.44097782 18.8929562,4.26859836 L18.8928834,4.26788826 Z" id="形状"></path>
            </g>
        </g>
    </g>
</svg>