<?xml version="1.0" encoding="UTF-8"?>
<svg width="54px" height="54px" viewBox="0 0 54 54" version="1.1" xmlns="http://www.w3.org/2000/svg" xmlns:xlink="http://www.w3.org/1999/xlink">
    <!-- Generator: Sketch 55.2 (78181) - https://sketchapp.com -->
    <!-- <title>icon/week</title> -->
    <desc>Created with Sketch.</desc>
    <g id="页面1" stroke="none" stroke-width="1" fill="none" fill-rule="evenodd">
        <g id="首页" transform="translate(-848.000000, -82.000000)">
            <g id="icon/week" transform="translate(848.000000, 82.000000)">
                <path d="M27,0 C41.9116882,-2.73923269e-15 54,12.0883118 54,27 C54,41.9116882 41.9116882,54 27,54 C12.0883118,54 1.82615513e-15,41.9116882 0,27 C-1.82615513e-15,12.0883118 12.0883118,2.73923269e-15 27,0 Z" id="bg/icon备份-2" fill="#3ECBCB"></path>
                <g id="icon/ZS统计2" transform="translate(13.000000, 14.000000)" fill="#FFFFFF" fill-rule="nonzero">
                    <path d="M8.75,19.9503311 C10.3333334,19.9503311 11.6666667,18.7086092 11.6666667,17.1357616 C11.6666667,16.4735099 11.4166667,15.8112583 11,15.3145695 L16.25,8.27814569 C16.5833333,8.44370861 17,8.52649006 17.4166667,8.52649006 C18.0833333,8.52649006 18.75,8.27814569 19.25,7.86423839 L23.4166666,11.0099337 C23.25,11.3410596 23.1666667,11.7549669 23.1666667,12.1688741 C23.1666667,13.7417218 24.5,14.9834437 26.0833333,14.9834437 C27.6666667,14.9834437 29,13.7417218 29,12.1688741 C29,10.5960265 27.6666667,9.35430461 26.0833333,9.35430461 C25.4166667,9.35430461 24.75,9.60264897 24.25,10.0165563 L20.0833333,6.87086092 C20.25,6.53973508 20.3333334,6.12582781 20.3333334,5.71192053 C20.3333334,4.13907286 19,2.897351 17.4166667,2.897351 C15.8333334,2.897351 14.5833333,4.13907286 14.5833333,5.71192053 C14.5833333,6.37417219 14.8333334,7.03642383 15.25,7.53311258 L9.91666669,14.4867549 C9.58333335,14.321192 9.16666669,14.2384106 8.75000003,14.2384106 C7.16666671,14.2384106 5.83333335,15.4801324 5.83333335,17.0529801 C5.83333335,18.6258278 7.16666665,19.9503311 8.75,19.9503311 Z M29.3333333,23.5927152 L4,23.5927152 L3.91666667,23.5927152 C3.91666667,23.5927152 3.66666668,23.5927152 3.5,23.4271523 C3.33333334,23.2615894 3.33333334,22.9304636 3.33333334,22.7649006 L3.33333334,0.662251667 C3.33333334,0.24834439 3,0 2.66666666,0 L0.666666679,0 C0.33333334,0 0,0.24834439 0,0.662251667 C0,1.07615894 0.33333334,1.32450333 0.666666679,1.32450333 L2,1.32450333 L2,4.13907286 L0.666666679,4.13907286 C0.33333334,4.05629142 0,4.38741722 0,4.71854306 C0,5.04966889 0.33333334,5.38079472 0.666666679,5.38079472 L2,5.38079472 L2,8.19536425 L0.666666679,8.19536425 C0.33333334,8.19536425 0,8.44370861 0,8.85761592 C0,9.18874175 0.33333334,9.51986758 0.666666679,9.51986758 L2,9.51986758 L2,12.3344371 L0.666666679,12.3344371 C0.33333334,12.3344371 0,12.5827814 0,12.9966888 C0,13.3278146 0.33333334,13.6589404 0.666666679,13.6589404 L2,13.6589404 L2,16.4735099 L0.666666679,16.4735099 C0.33333334,16.4735099 0,16.7218543 0,17.1357616 C0,17.4668874 0.33333334,17.7980133 0.666666679,17.7980133 L2,17.7980133 L2,20.6125828 L0.666666679,20.6125828 C0.33333334,20.6125828 0,20.8609271 0,21.2748344 C0,21.6059603 0.33333334,21.9370861 0.666666679,21.9370861 L2,21.9370861 L2,22.9304636 C2,23.6754967 2.25,24.1721854 2.66666669,24.5860927 C3.08333338,25 3.66666668,25 3.9166667,25 C4,25 4,25 4,25 L29.3333333,25 C29.6666667,25 30,24.7516556 30,24.3377483 C30,23.8410596 29.6666666,23.5927152 29.3333333,23.5927152 Z" id="Shape"></path>
                </g>
            </g>
        </g>
    </g>
</svg>
