<?xml version="1.0" encoding="UTF-8"?>
<svg width="54px" height="54px" viewBox="0 0 54 54" version="1.1" xmlns="http://www.w3.org/2000/svg" xmlns:xlink="http://www.w3.org/1999/xlink">
    <!-- Generator: Sketch 55.2 (78181) - https://sketchapp.com -->
    <!-- <title>icon/yesterday</title> -->
    <desc>Created with Sketch.</desc>
    <g id="页面1" stroke="none" stroke-width="1" fill="none" fill-rule="evenodd">
        <g id="首页" transform="translate(-542.000000, -82.000000)">
            <g id="icon/yesterday" transform="translate(542.000000, 82.000000)">
                <path d="M27,0 C41.9116882,-2.73923269e-15 54,12.0883118 54,27 C54,41.9116882 41.9116882,54 27,54 C12.0883118,54 1.82615513e-15,41.9116882 0,27 C-1.82615513e-15,12.0883118 12.0883118,2.73923269e-15 27,0 Z" id="bg/icon备份" fill="#59ADFD"></path>
                <g id="icon/报表统计-" transform="translate(12.000000, 14.000000)" fill="#FFFFFF" fill-rule="nonzero">
                    <path d="M2.14285714,17.2256729 C1.55112348,17.2256729 1.07142857,17.7076852 1.07142857,18.3022774 L1.07142857,24.7619048 C1.07142857,25.356497 1.55112348,25.8385093 2.14285714,25.8385093 C2.7345908,25.8385093 3.21428571,25.356497 3.21428571,24.7619048 L3.21428571,18.3022774 C3.21428571,17.7076852 2.7345908,17.2256729 2.14285714,17.2256729 Z M10.7142857,9.68944099 C10.1225521,9.68944099 9.64285714,10.1714533 9.64285714,10.7660455 L9.64285714,24.7619048 C9.64285714,25.356497 10.1225521,25.8385093 10.7142857,25.8385093 C11.3060194,25.8385093 11.7857143,25.356497 11.7857143,24.7619048 L11.7857143,10.7660455 C11.7857143,10.1714533 11.3060194,9.68944099 10.7142857,9.68944099 Z M19.2857143,17.2256729 C18.6939806,17.2256729 18.2142857,17.7076852 18.2142857,18.3022774 L18.2142857,24.7619048 C18.2142857,25.356497 18.6939806,25.8385093 19.2857143,25.8385093 C19.8774479,25.8385093 20.3571429,25.356497 20.3571429,24.7619048 L20.3571429,18.3022774 C20.3571429,17.7076852 19.8774479,17.2256729 19.2857143,17.2256729 Z M27.8571429,9.68944099 C27.2654092,9.68944099 26.7857143,10.1714533 26.7857143,10.7660455 L26.7857143,24.7619048 C26.7857143,25.356497 27.2654092,25.8385093 27.8571429,25.8385093 C28.4488765,25.8385093 28.9285714,25.356497 28.9285714,24.7619048 L28.9285714,10.7660455 C28.9285714,10.1714533 28.4488765,9.68944099 27.8571429,9.68944099 Z" id="Shape"></path>
                    <path d="M27.8571429,0 C26.6736755,0 25.7142857,0.964024555 25.7142857,2.15320911 C25.7142857,2.33838509 25.7742857,2.5063354 25.8192857,2.67859213 L19.8085714,8.72049689 C19.6371429,8.67312629 19.4721429,8.61283644 19.2857143,8.61283644 C19.1314286,8.61283644 18.9942857,8.66881988 18.8507143,8.70111801 L12.7692857,2.59031056 C12.8014286,2.44389234 12.8571429,2.30824017 12.8571429,2.15320911 C12.8571429,0.964024555 11.897753,0 10.7142857,0 C9.53081839,0 8.57142857,0.964024555 8.57142857,2.15320911 C8.57142857,2.33838509 8.63357143,2.5063354 8.67642857,2.67859213 L2.66571429,8.71834369 C2.49428571,8.67312629 2.32714286,8.61283644 2.14285714,8.61283644 C0.959389822,8.61283644 0,9.57686099 0,10.7660455 C0,11.9552301 0.959389822,12.9192547 2.14285714,12.9192547 C2.71117819,12.9192547 3.25622229,12.6923993 3.65808596,12.2885943 C4.05994963,11.8847893 4.28571429,11.3371121 4.28571429,10.7660455 C4.28571429,10.5808696 4.22571429,10.4129193 4.18071429,10.2406625 L10.1935714,4.19875776 C10.3628571,4.24397516 10.53,4.30641822 10.7142857,4.30641822 C10.89,4.30641822 11.0464286,4.24612836 11.2092857,4.2073706 L17.2435714,10.2686542 C17.2028571,10.4322981 17.1428571,10.5894824 17.1428571,10.7660455 C17.1428571,11.9552301 18.102247,12.9192547 19.2857143,12.9192547 C20.4691816,12.9192547 21.4285714,11.9552301 21.4285714,10.7660455 C21.4285714,10.5808696 21.3685714,10.4129193 21.3235714,10.2406625 L27.3342857,4.19875776 C27.5057143,4.24397516 27.6707143,4.30641822 27.8571429,4.30641822 C29.0406102,4.30641822 30,3.34239366 30,2.15320911 C30,0.964024555 29.0406102,0 27.8571429,0 Z" id="Shape"></path>
                </g>
            </g>
        </g>
    </g>
</svg>
